<svg xmlns="http://www.w3.org/2000/svg" version="1.1" xmlns:xlink="http://www.w3.org/1999/xlink" xmlns:svgjs="http://svgjs.dev/svgjs" width="1440" height="560" preserveAspectRatio="none" viewBox="0 0 1440 560"><g clip-path="url(&quot;#SvgjsClipPath1021&quot;)" fill="none"><circle r="93.335" cx="-57.35" cy="-90.09" stroke="#013053" stroke-opacity="0.25" stroke-width="2"></circle><circle r="93.335" cx="297.54" cy="308.49" stroke="#013053" stroke-opacity="0.25" stroke-width="2"></circle><circle r="93.335" cx="815.97" cy="732.09" stroke="#013053" stroke-opacity="0.25" stroke-width="2"></circle><circle r="140.075" cx="1255.01" cy="358.3" stroke="#013053" stroke-opacity="0.25" stroke-width="2"></circle><circle r="160.91" cx="1275.2" cy="48.39" stroke="#013053" stroke-opacity="0.25" stroke-width="2"></circle><circle r="158.795" cx="378.24" cy="547.83" stroke="#013053" stroke-opacity="0.25" stroke-width="2"></circle><circle r="73.01" cx="209.58" cy="411.15" stroke="#013053" stroke-opacity="0.25" stroke-width="2"></circle><circle r="82.8" cx="424.93" cy="216.56" stroke="#013053" stroke-opacity="0.25" stroke-width="2"></circle><circle r="172.28" cx="803.5" cy="424.33" stroke="#013053" stroke-opacity="0.25" stroke-width="2"></circle><circle r="170.1" cx="1280.47" cy="273.34" stroke="#013053" stroke-opacity="0.25" stroke-width="2"></circle><circle r="173.69" cx="988.22" cy="226.87" stroke="#013053" stroke-opacity="0.25" stroke-width="2"></circle><circle r="77.35" cx="182.87" cy="526.75" stroke="#013053" stroke-opacity="0.25" stroke-width="2"></circle><circle r="88.705" cx="210.17" cy="446.08" stroke="#013053" stroke-opacity="0.25" stroke-width="2"></circle><circle r="173.055" cx="1170.68" cy="108.23" stroke="#013053" stroke-opacity="0.25" stroke-width="2"></circle><circle r="131.4" cx="1421.17" cy="495.59" stroke="#013053" stroke-opacity="0.25" stroke-width="2"></circle><circle r="177.415" cx="995.61" cy="119.13" stroke="#013053" stroke-opacity="0.25" stroke-width="2"></circle><circle r="110.71" cx="40.04" cy="446.69" stroke="#013053" stroke-opacity="0.25" stroke-width="2"></circle><circle r="182.17" cx="709.8" cy="241.09" stroke="#013053" stroke-opacity="0.25" stroke-width="2"></circle><circle r="175.36" cx="6.69" cy="500.23" stroke="#013053" stroke-opacity="0.25" stroke-width="2"></circle><circle r="95.535" cx="33.24" cy="281.59" stroke="#013053" stroke-opacity="0.25" stroke-width="2"></circle><circle r="183.71" cx="694.91" cy="387.71" stroke="#013053" stroke-opacity="0.25" stroke-width="2"></circle><circle r="91.995" cx="235.29" cy="64.03" stroke="#013053" stroke-opacity="0.25" stroke-width="2"></circle><circle r="143.605" cx="577.29" cy="30.42" stroke="#013053" stroke-opacity="0.25" stroke-width="2"></circle><circle r="138.72" cx="708.17" cy="545" stroke="#013053" stroke-opacity="0.25" stroke-width="2"></circle><circle r="170.105" cx="265.92" cy="433.08" stroke="#013053" stroke-opacity="0.25" stroke-width="2"></circle><circle r="174.495" cx="1329.91" cy="435.26" stroke="#013053" stroke-opacity="0.25" stroke-width="2"></circle><circle r="134.655" cx="1167.93" cy="84.29" stroke="#013053" stroke-opacity="0.25" stroke-width="2"></circle><circle r="89.88" cx="330.14" cy="504.89" stroke="#013053" stroke-opacity="0.25" stroke-width="2"></circle><circle r="135.9" cx="199.63" cy="523.09" stroke="#013053" stroke-opacity="0.25" stroke-width="2"></circle><circle r="160.555" cx="163.12" cy="6.25" stroke="#013053" stroke-opacity="0.25" stroke-width="2"></circle><circle r="156.635" cx="2.01" cy="33.28" stroke="#013053" stroke-opacity="0.25" stroke-width="2"></circle><circle r="66.685" cx="1190.89" cy="182.91" stroke="#013053" stroke-opacity="0.25" stroke-width="2"></circle><circle r="107.34" cx="140.08" cy="82.29" stroke="#013053" stroke-opacity="0.25" stroke-width="2"></circle><circle r="177.24" cx="12.73" cy="486.51" stroke="#013053" stroke-opacity="0.25" stroke-width="2"></circle><circle r="52.82" cx="871.27" cy="384.94" stroke="#013053" stroke-opacity="0.25" stroke-width="2"></circle><circle r="126.965" cx="410.07" cy="398.24" stroke="#013053" stroke-opacity="0.25" stroke-width="2"></circle><circle r="55.73" cx="108.61" cy="360.59" stroke="#013053" stroke-opacity="0.25" stroke-width="2"></circle><circle r="175.035" cx="1279.39" cy="193.14" stroke="#013053" stroke-opacity="0.25" stroke-width="2"></circle><circle r="67.16" cx="772.83" cy="429.77" stroke="#013053" stroke-opacity="0.25" stroke-width="2"></circle><circle r="99.66" cx="942.86" cy="502.94" stroke="#013053" stroke-opacity="0.25" stroke-width="2"></circle><circle r="103.175" cx="206.19" cy="425.38" stroke="#013053" stroke-opacity="0.25" stroke-width="2"></circle><circle r="185.315" cx="1182.23" cy="475.15" stroke="#013053" stroke-opacity="0.25" stroke-width="2"></circle><circle r="126.625" cx="418.83" cy="465.05" stroke="#013053" stroke-opacity="0.25" stroke-width="2"></circle><circle r="156.64" cx="96.27" cy="251.99" stroke="#013053" stroke-opacity="0.25" stroke-width="2"></circle><circle r="185.18" cx="774.76" cy="506.55" stroke="#013053" stroke-opacity="0.25" stroke-width="2"></circle><circle r="72.72" cx="863.88" cy="139.87" stroke="#013053" stroke-opacity="0.25" stroke-width="2"></circle><circle r="165.605" cx="1248.23" cy="82.68" stroke="#013053" stroke-opacity="0.25" stroke-width="2"></circle><circle r="60.68" cx="1349.52" cy="488.8" stroke="#013053" stroke-opacity="0.25" stroke-width="2"></circle><circle r="99.255" cx="102.64" cy="455.33" stroke="#013053" stroke-opacity="0.25" stroke-width="2"></circle><circle r="86.09" cx="636.16" cy="119.56" stroke="#013053" stroke-opacity="0.25" stroke-width="2"></circle><circle r="58.065" cx="1126.41" cy="414.82" stroke="#013053" stroke-opacity="0.25" stroke-width="2"></circle><circle r="149.375" cx="401.44" cy="281.45" stroke="#013053" stroke-opacity="0.25" stroke-width="2"></circle><circle r="66.685" cx="28.31" cy="151.91" stroke="#013053" stroke-opacity="0.25" stroke-width="2"></circle><circle r="106.655" cx="1125.43" cy="219.78" stroke="#013053" stroke-opacity="0.25" stroke-width="2"></circle><circle r="119.63" cx="441.04" cy="530.88" stroke="#013053" stroke-opacity="0.25" stroke-width="2"></circle><circle r="89.435" cx="471.71" cy="327.74" stroke="#013053" stroke-opacity="0.25" stroke-width="2"></circle><circle r="97.94" cx="196.18" cy="97.74" stroke="#013053" stroke-opacity="0.25" stroke-width="2"></circle><circle r="120.505" cx="440.4" cy="241.02" stroke="#013053" stroke-opacity="0.25" stroke-width="2"></circle><circle r="73.655" cx="1053.04" cy="550.31" stroke="#013053" stroke-opacity="0.25" stroke-width="2"></circle><circle r="120.06" cx="1138.28" cy="241.76" stroke="#013053" stroke-opacity="0.25" stroke-width="2"></circle><circle r="155.59" cx="1328.09" cy="106.32" stroke="#013053" stroke-opacity="0.25" stroke-width="2"></circle><circle r="176.24" cx="1098.49" cy="522.11" stroke="#013053" stroke-opacity="0.25" stroke-width="2"></circle><circle r="96.29" cx="714.51" cy="458.42" stroke="#013053" stroke-opacity="0.25" stroke-width="2"></circle><circle r="91.08" cx="1229.52" cy="68.68" stroke="#013053" stroke-opacity="0.25" stroke-width="2"></circle><circle r="178" cx="11.67" cy="392.98" stroke="#013053" stroke-opacity="0.25" stroke-width="2"></circle><circle r="100.855" cx="1337.59" cy="121.06" stroke="#013053" stroke-opacity="0.25" stroke-width="2"></circle><circle r="116.385" cx="10.16" cy="365.45" stroke="#013053" stroke-opacity="0.25" stroke-width="2"></circle><circle r="88.435" cx="351.9" cy="248.5" stroke="#013053" stroke-opacity="0.25" stroke-width="2"></circle><circle r="123.07" cx="1072.38" cy="499.24" stroke="#013053" stroke-opacity="0.25" stroke-width="2"></circle><circle r="133.21" cx="1392.13" cy="363.49" stroke="#013053" stroke-opacity="0.25" stroke-width="2"></circle><circle r="83.815" cx="266.06" cy="50.42" stroke="#013053" stroke-opacity="0.25" stroke-width="2"></circle><circle r="151.405" cx="264.77" cy="140.11" stroke="#013053" stroke-opacity="0.25" stroke-width="2"></circle><circle r="150.635" cx="29.44" cy="78.6" stroke="#013053" stroke-opacity="0.25" stroke-width="2"></circle><circle r="135.775" cx="1096.2" cy="258.37" stroke="#013053" stroke-opacity="0.25" stroke-width="2"></circle><circle r="132.72" cx="605.75" cy="391.79" stroke="#013053" stroke-opacity="0.25" stroke-width="2"></circle><circle r="87.845" cx="218.07" cy="525.38" stroke="#013053" stroke-opacity="0.25" stroke-width="2"></circle><circle r="159.71" cx="1356.52" cy="553.15" stroke="#013053" stroke-opacity="0.25" stroke-width="2"></circle><circle r="146.065" cx="165.31" cy="174.93" stroke="#013053" stroke-opacity="0.25" stroke-width="2"></circle><circle r="184.25" cx="1151.17" cy="555.28" stroke="#013053" stroke-opacity="0.25" stroke-width="2"></circle><circle r="150.345" cx="187.27" cy="482.2" stroke="#013053" stroke-opacity="0.25" stroke-width="2"></circle><circle r="148.235" cx="206.69" cy="234.08" stroke="#013053" stroke-opacity="0.25" stroke-width="2"></circle><circle r="167.665" cx="1062.39" cy="529.31" stroke="#013053" stroke-opacity="0.25" stroke-width="2"></circle><circle r="46.7" cx="810.33" cy="134.43" stroke="#013053" stroke-opacity="0.25" stroke-width="2"></circle><circle r="161.125" cx="994.33" cy="407.44" stroke="#013053" stroke-opacity="0.25" stroke-width="2"></circle><circle r="123.22" cx="295.58" cy="221.94" stroke="#013053" stroke-opacity="0.25" stroke-width="2"></circle><circle r="73.75" cx="407.67" cy="293.41" stroke="#013053" stroke-opacity="0.25" stroke-width="2"></circle><circle r="172.555" cx="1085.1" cy="0.71" stroke="#013053" stroke-opacity="0.25" stroke-width="2"></circle><circle r="89.2" cx="618.59" cy="94.24" stroke="#013053" stroke-opacity="0.25" stroke-width="2"></circle><circle r="179.445" cx="679.05" cy="444.59" stroke="#013053" stroke-opacity="0.25" stroke-width="2"></circle><circle r="172.03" cx="605.98" cy="348.27" stroke="#013053" stroke-opacity="0.25" stroke-width="2"></circle><circle r="134.69" cx="1122.38" cy="105.89" stroke="#013053" stroke-opacity="0.25" stroke-width="2"></circle><circle r="102.05" cx="924.06" cy="176.07" stroke="#013053" stroke-opacity="0.25" stroke-width="2"></circle><circle r="128.95" cx="1116.69" cy="301.16" stroke="#013053" stroke-opacity="0.25" stroke-width="2"></circle><circle r="135.225" cx="460.81" cy="445.81" stroke="#013053" stroke-opacity="0.25" stroke-width="2"></circle><circle r="99.58" cx="1363.69" cy="491.39" stroke="#013053" stroke-opacity="0.25" stroke-width="2"></circle><circle r="139.12" cx="1092.85" cy="519.19" stroke="#013053" stroke-opacity="0.25" stroke-width="2"></circle><circle r="119.03" cx="1024.12" cy="510.2" stroke="#013053" stroke-opacity="0.25" stroke-width="2"></circle><circle r="146.78" cx="267.72" cy="187.86" stroke="#013053" stroke-opacity="0.25" stroke-width="2"></circle><circle r="120.25" cx="147.56" cy="555.26" stroke="#013053" stroke-opacity="0.25" stroke-width="2"></circle><circle r="169.63" cx="63.9" cy="482.08" stroke="#013053" stroke-opacity="0.25" stroke-width="2"></circle><circle r="161.995" cx="251.13" cy="471.48" stroke="#013053" stroke-opacity="0.25" stroke-width="2"></circle><circle r="50.605" cx="7.27" cy="230.68" stroke="#013053" stroke-opacity="0.25" stroke-width="2"></circle><circle r="167.18" cx="981.6" cy="41.43" stroke="#013053" stroke-opacity="0.25" stroke-width="2"></circle><circle r="52.76" cx="1174.56" cy="310.74" stroke="#013053" stroke-opacity="0.25" stroke-width="2"></circle><circle r="144.015" cx="562.33" cy="339.89" stroke="#013053" stroke-opacity="0.25" stroke-width="2"></circle><circle r="54.215" cx="1049.98" cy="275.25" stroke="#013053" stroke-opacity="0.25" stroke-width="2"></circle><circle r="171.07" cx="129.81" cy="239.26" stroke="#013053" stroke-opacity="0.25" stroke-width="2"></circle><circle r="95.655" cx="952.79" cy="102.76" stroke="#013053" stroke-opacity="0.25" stroke-width="2"></circle><circle r="52.66" cx="654.18" cy="194.2" stroke="#013053" stroke-opacity="0.25" stroke-width="2"></circle></g><defs><clipPath id="SvgjsClipPath1021"><rect width="1440" height="560" x="0" y="0"></rect></clipPath></defs></svg>