<svg xmlns="http://www.w3.org/2000/svg" version="1.1" xmlns:xlink="http://www.w3.org/1999/xlink" xmlns:svgjs="http://svgjs.dev/svgjs" width="1280" height="1024" preserveAspectRatio="none" viewBox="0 0 1280 1024"><g mask="url(&quot;#SvgjsMask1473&quot;)" fill="none"><rect width="1280" height="1024" x="0" y="0" fill="url(&quot;#SvgjsLinearGradient1474&quot;)"></rect><path d="M0 0L416.84 0L0 370.97z" fill="rgba(255, 255, 255, .1)"></path><path d="M0 370.97L416.84 0L585.13 0L0 582.9300000000001z" fill="rgba(255, 255, 255, .075)"></path><path d="M0 582.9300000000001L585.13 0L823.44 0L0 647.96z" fill="rgba(255, 255, 255, .05)"></path><path d="M0 647.96L823.44 0L1098.5500000000002 0L0 732.9100000000001z" fill="rgba(255, 255, 255, .025)"></path><path d="M1280 1024L1080.79 1024L1280 550.26z" fill="rgba(0, 0, 0, .1)"></path><path d="M1280 550.26L1080.79 1024L793.1299999999999 1024L1280 504.15z" fill="rgba(0, 0, 0, .075)"></path><path d="M1280 504.15L793.13 1024L690.42 1024L1280 454.58z" fill="rgba(0, 0, 0, .05)"></path><path d="M1280 454.5799999999999L690.42 1024L318.59 1024L1280 382.79999999999995z" fill="rgba(0, 0, 0, .025)"></path></g><defs><mask id="SvgjsMask1473"><rect width="1280" height="1024" fill="#ffffff"></rect></mask><linearGradient x1="50%" y1="100%" x2="50%" y2="0%" gradientUnits="userSpaceOnUse" id="SvgjsLinearGradient1474"><stop stop-color="#0e2a47" offset="0"></stop><stop stop-color="rgba(195, 195, 195, 1)" offset="1"></stop><stop stop-color="rgba(239, 239, 239, 1)" offset="1"></stop></linearGradient></defs></svg>