<svg xmlns="http://www.w3.org/2000/svg" version="1.1" xmlns:xlink="http://www.w3.org/1999/xlink" xmlns:svgjs="http://svgjs.dev/svgjs" width="1440" height="560" preserveAspectRatio="none" viewBox="0 0 1440 560"><g mask="url(&quot;#SvgjsMask1163&quot;)" fill="none"><rect width="1440" height="560" x="0" y="0" fill="rgba(207, 205, 205, 1)"></rect><path d="M0,656.211C121.567,636.136,176.405,494.531,259.136,403.224C319.854,336.212,376.154,270.838,420.556,192.061C468.898,106.294,521.626,22.05,529.305,-76.103C538.183,-189.588,533.378,-312.221,467.255,-404.879C399.153,-500.31,286.721,-567.099,170.131,-579.414C59.474,-591.103,-38.764,-519.805,-137.645,-468.774C-219.503,-426.528,-280.912,-362.062,-355.572,-308.105C-457.212,-234.65,-625.237,-215.912,-655.816,-94.292C-685.578,24.076,-549.248,117.15,-489.215,223.417C-435.161,319.101,-402.979,426.153,-320.669,498.97C-229.661,579.482,-119.886,676.008,0,656.211" fill="#a7a3a3"></path><path d="M1440 1148.1100000000001C1549.871 1130.516 1649.971 1091.5929999999998 1748.895 1040.65 1857.763 984.586 2002.524 951.1700000000001 2045.2649999999999 836.415 2088.233 721.05 1992.95 603.159 1955.5230000000001 485.879 1924.691 389.264 1911.062 286.012 1845.048 209.024 1778.849 131.81900000000002 1680.524 98.51299999999998 1587.717 56.92399999999998 1480.369 8.81899999999996 1376.019-72.33699999999999 1259.9569999999999-53.16999999999996 1141.183-33.55499999999995 1060.522 72.221 976.002 157.94400000000002 886.059 249.166 780.721 336.169 752.805 461.196 724.12 589.667 769.765 721.381 823.355 841.613 877.318 962.682 941.537 1091.9299999999998 1060.234 1150.9270000000001 1175.939 1208.437 1312.416 1168.54 1440 1148.1100000000001" fill="#f7f7f7"></path></g><defs><mask id="SvgjsMask1163"><rect width="1440" height="560" fill="#ffffff"></rect></mask></defs></svg>